<svg width="1774" height="239" viewBox="0 0 1774 239" fill="none" xmlns="http://www.w3.org/2000/svg">
<path d="M102.815 45.91V235H55.6246V45.91H0.514649V4.66H157.925V45.91H102.815ZM222.718 235H175.528V4.66H275.188C295.868 4.66 311.598 11.15 322.378 24.13C333.158 37.11 338.548 54.49 338.548 76.27C338.548 93.21 335.358 107.51 328.978 119.17C322.598 130.83 313.138 138.97 300.598 143.59L340.858 235H289.708L254.068 147.88H222.718V235ZM269.248 108.61C275.628 108.61 280.578 107.07 284.098 103.99C287.838 100.69 289.708 95.08 289.708 87.16V67.36C289.708 59.44 287.838 53.94 284.098 50.86C280.578 47.56 275.628 45.91 269.248 45.91H222.718V108.61H269.248ZM445.945 238.96C432.085 238.96 419.545 236.87 408.325 232.69C397.105 228.29 387.535 221.36 379.615 211.9C371.695 202.22 365.535 189.9 361.135 174.94C356.735 159.76 354.535 141.39 354.535 119.83C354.535 98.27 356.735 80.01 361.135 65.05C365.535 49.87 371.695 37.55 379.615 28.09C387.535 18.41 397.105 11.48 408.325 7.29998C419.545 2.89999 432.085 0.699987 445.945 0.699987C459.805 0.699987 472.345 2.89999 483.565 7.29998C494.785 11.48 504.355 18.41 512.275 28.09C520.195 37.55 526.355 49.87 530.755 65.05C535.155 80.01 537.355 98.27 537.355 119.83C537.355 141.39 535.155 159.76 530.755 174.94C526.355 189.9 520.195 202.22 512.275 211.9C504.355 221.36 494.785 228.29 483.565 232.69C472.345 236.87 459.805 238.96 445.945 238.96ZM445.945 197.38C459.145 197.38 469.265 193.42 476.305 185.5C483.565 177.58 487.195 165.7 487.195 149.86V89.8C487.195 73.96 483.565 62.08 476.305 54.16C469.265 46.24 459.145 42.28 445.945 42.28C432.745 42.28 422.515 46.24 415.255 54.16C408.215 62.08 404.695 73.96 404.695 89.8V149.86C404.695 165.7 408.215 177.58 415.255 185.5C422.515 193.42 432.745 197.38 445.945 197.38ZM597.271 235V148.21L526.981 4.66H578.461L619.381 99.04H624.661L664.261 4.66H714.751L644.461 148.21V235H597.271ZM866.886 238.96C853.026 238.96 840.376 236.87 828.936 232.69C817.716 228.51 808.036 221.8 799.896 212.56C791.976 203.32 785.706 191.22 781.086 176.26C776.686 161.3 774.486 143.04 774.486 121.48C774.486 99.92 776.686 81.55 781.086 66.37C785.706 50.97 791.976 38.43 799.896 28.75C808.036 19.07 817.716 12.03 828.936 7.63C840.376 3.00999 853.026 0.699987 866.886 0.699987C887.566 0.699987 903.846 5.20999 915.726 14.23C927.826 23.03 937.726 36.45 945.426 54.49L904.506 75.61C903.186 70.77 901.646 66.26 899.886 62.08C898.346 57.9 896.146 54.38 893.286 51.52C890.426 48.66 886.796 46.46 882.396 44.92C878.216 43.16 873.046 42.28 866.886 42.28C853.686 42.28 843.346 46.24 835.866 54.16C828.386 62.08 824.646 73.96 824.646 89.8V149.86C824.646 165.7 828.386 177.58 835.866 185.5C843.346 193.42 853.686 197.38 866.886 197.38C873.046 197.38 878.326 196.5 882.726 194.74C887.346 192.76 891.196 190.23 894.276 187.15C897.356 183.85 899.886 180.11 901.866 175.93C903.846 171.53 905.606 166.8 907.146 161.74L946.086 184.18C942.126 192.76 937.726 200.46 932.886 207.28C928.046 214.1 922.436 219.93 916.056 224.77C909.896 229.39 902.746 232.91 894.606 235.33C886.466 237.75 877.226 238.96 866.886 238.96ZM955.942 235V197.71H983.002V41.95H955.942V4.66H1057.25V41.95H1030.19V197.71H1057.25V235H955.942ZM1081.49 235V4.66H1224.05V45.91H1128.68V98.05H1209.53V138.97H1128.68V193.75H1224.05V235H1081.49ZM1316.73 238.96C1282.19 238.96 1255.13 226.86 1235.55 202.66L1265.91 172.3C1279.11 189.24 1296.38 197.71 1317.72 197.71C1339.72 197.71 1350.72 188.03 1350.72 168.67C1350.72 160.75 1348.74 154.59 1344.78 150.19C1340.82 145.79 1334.66 142.71 1326.3 140.95L1305.18 136.99C1283.84 133.03 1268.11 125.66 1257.99 114.88C1248.09 103.88 1243.14 88.7 1243.14 69.34C1243.14 46.9 1249.74 29.85 1262.94 18.19C1276.14 6.52999 1295.5 0.699987 1321.02 0.699987C1353.58 0.699987 1378.33 11.26 1395.27 32.38L1364.91 62.74C1359.19 55.7 1352.7 50.53 1345.44 47.23C1338.4 43.71 1330.04 41.95 1320.36 41.95C1309.8 41.95 1302.1 43.93 1297.26 47.89C1292.64 51.85 1290.33 58.23 1290.33 67.03C1290.33 74.73 1292.09 80.56 1295.61 84.52C1299.35 88.48 1305.29 91.34 1313.43 93.1L1334.55 97.39C1345.77 99.81 1355.34 102.78 1363.26 106.3C1371.4 109.6 1378 113.89 1383.06 119.17C1388.34 124.45 1392.08 130.72 1394.28 137.98C1396.7 145.24 1397.91 153.71 1397.91 163.39C1397.91 188.03 1390.98 206.84 1377.12 219.82C1363.26 232.58 1343.13 238.96 1316.73 238.96ZM1504.06 238.96C1490.2 238.96 1477.55 236.87 1466.11 232.69C1454.89 228.51 1445.21 221.8 1437.07 212.56C1429.15 203.32 1422.88 191.22 1418.26 176.26C1413.86 161.3 1411.66 143.04 1411.66 121.48C1411.66 99.92 1413.86 81.55 1418.26 66.37C1422.88 50.97 1429.15 38.43 1437.07 28.75C1445.21 19.07 1454.89 12.03 1466.11 7.63C1477.55 3.00999 1490.2 0.699987 1504.06 0.699987C1524.74 0.699987 1541.02 5.20999 1552.9 14.23C1565 23.03 1574.9 36.45 1582.6 54.49L1541.68 75.61C1540.36 70.77 1538.82 66.26 1537.06 62.08C1535.52 57.9 1533.32 54.38 1530.46 51.52C1527.6 48.66 1523.97 46.46 1519.57 44.92C1515.39 43.16 1510.22 42.28 1504.06 42.28C1490.86 42.28 1480.52 46.24 1473.04 54.16C1465.56 62.08 1461.82 73.96 1461.82 89.8V149.86C1461.82 165.7 1465.56 177.58 1473.04 185.5C1480.52 193.42 1490.86 197.38 1504.06 197.38C1510.22 197.38 1515.5 196.5 1519.9 194.74C1524.52 192.76 1528.37 190.23 1531.45 187.15C1534.53 183.85 1537.06 180.11 1539.04 175.93C1541.02 171.53 1542.78 166.8 1544.32 161.74L1583.26 184.18C1579.3 192.76 1574.9 200.46 1570.06 207.28C1565.22 214.1 1559.61 219.93 1553.23 224.77C1547.07 229.39 1539.92 232.91 1531.78 235.33C1523.64 237.75 1514.4 238.96 1504.06 238.96ZM1681.94 238.96C1668.08 238.96 1655.54 236.87 1644.32 232.69C1633.1 228.29 1623.53 221.36 1615.61 211.9C1607.69 202.22 1601.53 189.9 1597.13 174.94C1592.73 159.76 1590.53 141.39 1590.53 119.83C1590.53 98.27 1592.73 80.01 1597.13 65.05C1601.53 49.87 1607.69 37.55 1615.61 28.09C1623.53 18.41 1633.1 11.48 1644.32 7.29998C1655.54 2.89999 1668.08 0.699987 1681.94 0.699987C1695.8 0.699987 1708.34 2.89999 1719.56 7.29998C1730.78 11.48 1740.35 18.41 1748.27 28.09C1756.19 37.55 1762.35 49.87 1766.75 65.05C1771.15 80.01 1773.35 98.27 1773.35 119.83C1773.35 141.39 1771.15 159.76 1766.75 174.94C1762.35 189.9 1756.19 202.22 1748.27 211.9C1740.35 221.36 1730.78 228.29 1719.56 232.69C1708.34 236.87 1695.8 238.96 1681.94 238.96ZM1681.94 197.38C1695.14 197.38 1705.26 193.42 1712.3 185.5C1719.56 177.58 1723.19 165.7 1723.19 149.86V89.8C1723.19 73.96 1719.56 62.08 1712.3 54.16C1705.26 46.24 1695.14 42.28 1681.94 42.28C1668.74 42.28 1658.51 46.24 1651.25 54.16C1644.21 62.08 1640.69 73.96 1640.69 89.8V149.86C1640.69 165.7 1644.21 177.58 1651.25 185.5C1658.51 193.42 1668.74 197.38 1681.94 197.38Z" fill="currentColor"/>
</svg>
