<svg width="824" height="800" viewBox="0 0 824 800" fill="none" xmlns="http://www.w3.org/2000/svg">
<rect x="12" width="800" height="800" fill="#0019FA"/>
<path d="M155.758 308.128V574H89.4058V308.128H11.9178V250.128H233.246V308.128H155.758ZM474.685 405.104L478.397 350.816H470.973L451.021 402.32L397.197 519.712L343.837 402.32L323.885 350.816H316.461L320.173 405.104V574H257.997V250.128H327.597L371.677 346.64L395.805 415.776H400.445L424.573 346.64L467.725 250.128H536.861V574H474.685V405.104ZM700.784 579.568C681.296 579.568 663.509 576.629 647.424 570.752C631.648 564.875 618.037 555.44 606.592 542.448C595.456 529.456 586.64 512.443 580.144 491.408C573.957 470.373 570.864 444.699 570.864 414.384C570.864 384.069 573.957 358.24 580.144 336.896C586.64 315.243 595.456 297.611 606.592 284C618.037 270.389 631.648 260.491 647.424 254.304C663.509 247.808 681.296 244.56 700.784 244.56C729.861 244.56 752.752 250.901 769.456 263.584C786.469 275.957 800.389 294.827 811.216 320.192L753.68 349.888C751.824 343.083 749.658 336.741 747.184 330.864C745.018 324.987 741.925 320.037 737.904 316.016C733.882 311.995 728.778 308.901 722.592 306.736C716.714 304.261 709.445 303.024 700.784 303.024C682.224 303.024 667.685 308.592 657.168 319.728C646.65 330.864 641.392 347.568 641.392 369.84V454.288C641.392 476.56 646.65 493.264 657.168 504.4C667.685 515.536 682.224 521.104 700.784 521.104C709.445 521.104 716.869 519.867 723.056 517.392C729.552 514.608 734.965 511.051 739.296 506.72C743.626 502.08 747.184 496.821 749.968 490.944C752.752 484.757 755.226 478.107 757.392 470.992L812.144 502.544C806.576 514.608 800.389 525.435 793.584 535.024C786.778 544.613 778.89 552.811 769.92 559.616C761.258 566.112 751.205 571.061 739.76 574.464C728.314 577.867 715.322 579.568 700.784 579.568Z" fill="white"/>
</svg>
